<?xml version="1.0" standalone="no"?>
<!DOCTYPE svg PUBLIC "-//W3C//DTD SVG 20010904//EN"
 "http://www.w3.org/TR/2001/REC-SVG-20010904/DTD/svg10.dtd">
<svg version="1.0" xmlns="http://www.w3.org/2000/svg"
 width="80.000000pt" height="80.000000pt" viewBox="0 0 80.000000 80.000000"
 preserveAspectRatio="xMidYMid meet">
<metadata>
Created by potrace 1.14, written by Peter Selinger 2001-2017
</metadata>
<g transform="translate(0.000000,80.000000) scale(0.100000,-0.100000)"
fill="#000000" stroke="none">
<path d="M44 608 c2 -14 12 -25 27 -28 24 -6 24 -6 27 -167 l2 -161 -28 -6
c-18 -5 -28 -13 -29 -26 -2 -19 5 -20 88 -20 83 0 89 1 89 20 0 15 -8 22 -29
26 l-30 6 -3 115 c-2 63 0 119 3 125 3 5 48 -58 99 -142 l92 -151 47 3 46 3 1
183 c1 100 3 185 6 188 3 3 15 6 27 7 15 1 21 8 21 24 0 22 -3 23 -86 23 -82
0 -85 -1 -82 -22 2 -14 12 -24 28 -28 25 -6 25 -7 28 -125 l3 -120 -47 75
c-25 41 -66 108 -91 148 l-44 72 -85 0 c-81 0 -84 -1 -80 -22z"/>
<path d="M530 305 c0 -19 5 -35 10 -35 6 0 10 16 10 35 0 19 -4 35 -10 35 -5
0 -10 -16 -10 -35z"/>
<path d="M575 278 c-3 -7 -3 -28 -1 -46 2 -18 -1 -35 -6 -38 -15 -9 12 -34 37
-34 51 0 59 59 8 61 -25 2 -26 2 -4 6 13 3 26 13 28 24 3 10 10 19 15 19 5 0
7 4 4 8 -8 14 -76 14 -81 0z m38 -31 c-3 -5 -10 -4 -15 1 -6 6 -7 16 -3 22 6
9 9 9 16 -1 4 -7 5 -17 2 -22z m8 -62 c-1 -15 -24 -12 -29 3 -3 9 2 13 12 10
10 -1 17 -7 17 -13z"/>
<path d="M674 276 c-3 -8 -4 -27 -2 -43 6 -50 78 -40 78 11 0 12 -5 27 -12 34
-16 16 -57 15 -64 -2z m46 -37 c0 -20 -4 -29 -12 -27 -11 4 -13 19 -9 59 2 24
21 -5 21 -32z"/>
</g>
</svg>
